<?xml version="1.0" encoding="UTF-8" standalone="no"?>
<!DOCTYPE svg PUBLIC "-//W3C//DTD SVG 1.1//EN" "http://www.w3.org/Graphics/SVG/1.1/DTD/svg11.dtd">
<svg width="100%" height="100%" viewBox="0 0 105 105" version="1.1" xmlns="http://www.w3.org/2000/svg" xmlns:xlink="http://www.w3.org/1999/xlink" xml:space="preserve" xmlns:serif="http://www.serif.com/" style="fill-rule:evenodd;clip-rule:evenodd;stroke-linejoin:round;stroke-miterlimit:2;">
    <g transform="matrix(0.776053,0,0,0.778715,-102.944,1.01059)">
        <g id="Path_1" transform="matrix(1,0,0,1,31.3627,0)">
            <path d="M216.564,132.249C210.88,132.24 206.207,127.565 206.2,121.881L206.2,54.408C206.2,35.932 190.996,20.728 172.52,20.728C154.044,20.728 138.84,35.932 138.84,54.408C138.84,72.884 154.044,88.088 172.52,88.088C172.554,88.088 172.588,88.087 172.622,88.087C178.31,88.087 182.991,92.768 182.991,98.456C182.991,104.145 178.31,108.825 172.622,108.825L172.52,108.825C150.63,108.841 130.775,95.632 122.332,75.436L121.993,74.629L121.122,74.613C115.517,74.463 110.98,69.827 110.95,64.22L110.95,44.613C110.98,39.008 115.514,34.373 121.117,34.22L121.988,34.204L122.327,33.397C130.778,13.204 150.628,-0.007 172.518,-0.007C202.366,-0.007 226.927,24.554 226.927,54.402L226.927,121.88C226.927,127.566 222.25,132.246 216.564,132.249Z" style="fill:rgb(33,0,73);fill-rule:nonzero;"/>
        </g>
        <g id="Path_2" transform="matrix(1,0,0,1,28.6147,-22.181)">
            <path d="M135.549,154.43C129.864,154.423 125.188,149.746 125.181,144.061L125.181,114.861C130.733,122.182 137.808,128.212 145.918,132.532L145.918,144.062C145.911,149.747 141.234,154.423 135.549,154.43Z" style="fill:rgb(230,28,93);fill-rule:nonzero;"/>
        </g>
    </g>
</svg>
